<?xml version="1.0" encoding="iso-8859-1"?>
<!-- Generator: Adobe Illustrator 16.0.0, SVG Export Plug-In . SVG Version: 6.00 Build 0)  -->
<!DOCTYPE svg PUBLIC "-//W3C//DTD SVG 1.1//EN" "http://www.w3.org/Graphics/SVG/1.1/DTD/svg11.dtd">
<svg xmlns="http://www.w3.org/2000/svg" xmlns:xlink="http://www.w3.org/1999/xlink" version="1.1" id="Capa_1" x="0px" y="0px" width="512px" height="512px" viewBox="0 0 43.752 43.751" style="enable-background:new 0 0 43.752 43.751;" xml:space="preserve">
<g>
	<g id="Layer_1_copy_41_">
		<path d="M36.836,17.375c-2.049,0-3.731,0.681-5.045,2.05c-1.242,1.32-1.865,2.946-1.865,4.886c0,1.938,0.623,3.563,1.865,4.885    c1.295,1.385,2.979,2.074,5.045,2.074c2.066,0,3.75-0.689,5.049-2.074c1.242-1.32,1.867-2.946,1.867-4.885    s-0.625-3.563-1.867-4.886C40.586,18.056,38.902,17.375,36.836,17.375z M38.947,26.539c-0.506,0.684-1.209,1.02-2.111,1.02    c-0.899,0-1.604-0.334-2.106-1.02c-0.451-0.613-0.676-1.357-0.676-2.229s0.225-1.608,0.676-2.207    c0.504-0.679,1.207-1.018,2.106-1.018c0.902,0,1.605,0.338,2.111,1.018c0.449,0.597,0.676,1.334,0.676,2.207    S39.396,25.925,38.947,26.539z M1.725,23.384c-0.019,1.695,0.552,3.393,1.588,4.957C1.206,26.646-0.028,24.553,0,22.31    c0.07-5.551,7.854-9.949,17.383-9.824c5.969,0.083,11.207,1.918,14.266,4.645c-3.092-2.177-7.655-3.59-12.78-3.655    C9.475,13.349,1.798,17.786,1.725,23.384z M29.795,27.437c0.334,0.358,0.498,0.75,0.498,1.17c0,0.865-0.604,1.549-1.812,2.056    c-0.965,0.405-1.981,0.606-3.051,0.606c-2.07,0-3.751-0.689-5.045-2.074c-1.244-1.32-1.866-2.946-1.866-4.885    s0.632-3.579,1.906-4.921c1.27-1.34,2.935-2.013,5.005-2.013c1.19,0,2.219,0.163,3.075,0.489c1.191,0.437,1.787,1.123,1.787,2.05    c0,0.474-0.155,0.889-0.473,1.246c-0.312,0.357-0.719,0.54-1.203,0.54c-0.334,0-0.812-0.104-1.441-0.309    c-0.629-0.201-1.127-0.304-1.493-0.304c-0.979,0-1.736,0.322-2.279,0.967c-0.506,0.585-0.76,1.333-0.76,2.257    c0,0.869,0.229,1.606,0.683,2.205c0.508,0.694,1.211,1.043,2.12,1.043c0.404,0,0.951-0.108,1.648-0.332    c0.698-0.219,1.209-0.328,1.522-0.328C29.066,26.897,29.463,27.079,29.795,27.437z M17.665,25.212    c0.324-0.245,0.485-0.685,0.485-1.32c0-1.771-0.634-3.305-1.905-4.592c-1.272-1.283-2.85-1.927-4.747-1.927    c-2.029,0-3.733,0.678-5.108,2.042C5.014,20.772,4.326,22.4,4.326,24.31c0,2.004,0.66,3.664,1.986,4.981    c1.322,1.316,3.051,1.978,5.187,1.978c1.331,0,2.64-0.218,3.92-0.658c1.684-0.584,2.524-1.398,2.524-2.442    c0-0.456-0.17-0.847-0.502-1.173c-0.331-0.324-0.735-0.487-1.209-0.487c-0.262,0-0.86,0.204-1.801,0.61    c-0.938,0.406-1.74,0.611-2.405,0.611c-0.856,0-1.589-0.158-2.179-0.465c-0.739-0.391-1.104-0.951-1.104-1.685h7.411    C16.835,25.582,17.34,25.458,17.665,25.212z M8.743,22.942c0-0.581,0.277-1.107,0.836-1.583c0.557-0.477,1.157-0.712,1.802-0.712    c0.631,0,1.221,0.235,1.782,0.712c0.553,0.476,0.844,1.003,0.86,1.583H8.743z" fill="#5cc412"/>
	</g>
</g>
<g>
</g>
<g>
</g>
<g>
</g>
<g>
</g>
<g>
</g>
<g>
</g>
<g>
</g>
<g>
</g>
<g>
</g>
<g>
</g>
<g>
</g>
<g>
</g>
<g>
</g>
<g>
</g>
<g>
</g>
</svg>
