<svg xmlns="http://www.w3.org/2000/svg" viewBox="0 0 45 45"><defs><clipPath id="a"><path d="M0 36h36V0H0v36z"/></clipPath></defs><g clip-path="url(#a)" transform="matrix(1.25 0 0 -1.25 0 45)"><path d="M20 29.959c0-1.114-.903-2.015-2-2.015s-2 .902-2 2.014v4.026c0 1.113.903 2.015 2 2.015s2-.9 2-2.013v-4.03z" fill="#ffcc4d"/><path d="M9.18 0c-.224 0-.452.052-.666.16-.736.373-1.034 1.28-.666 2.026l8.94 18.128c.253.51.77.834 1.333.834.566 0 1.082-.323 1.333-.834l8.942-18.128c.368-.747.07-1.653-.666-2.027-.737-.373-1.632-.07-2 .675L18.12 16.26 10.515.835C10.254.305 9.726 0 9.18 0" fill="#ffac33"/><path d="M18.12 15.608c-.262 0-.515.106-.7.295L3.51 30.003c-.388.393-.388 1.03 0 1.423s1.017.393 1.404 0L18.12 18.04l13.204 13.386c.39.393 1.017.393 1.405 0 .387-.393.387-1.03 0-1.424l-13.906-14.1c-.187-.188-.44-.294-.703-.294" fill="#58595b"/><path d="M34.015 16.615C34.015 7.717 26.9.505 18.12.505 9.345.504 2.23 7.716 2.23 16.614c0 8.9 7.116 16.113 15.893 16.113 8.78 0 15.895-7.213 15.895-16.113" fill="#dd2e44"/><path d="M30.04 16.615c0-6.674-5.334-12.084-11.92-12.084-6.582 0-11.918 5.41-11.918 12.085 0 6.675 5.336 12.085 11.92 12.085s11.92-5.41 11.92-12.085" fill="#e6e7e8"/><path d="M30.04 34.743c-1.646 0-3.135-.676-4.214-1.77l8.43-8.544C35.332 25.52 36 27.032 36 28.7c0 3.337-2.67 6.043-5.96 6.043M5.96 34.743c1.645 0 3.135-.676 4.214-1.77l-8.43-8.544C.67 25.52 0 27.032 0 28.7c0 3.337 2.668 6.043 5.96 6.043" fill="#ffcc4d"/><path d="M23 16h-5c-.552 0-1 .447-1 1v9c0 .552.448 1 1 1s1-.448 1-1v-8h4c.553 0 1-.448 1-1 0-.553-.447-1-1-1" fill="#414042"/></g></svg>